<svg xmlns="http://www.w3.org/2000/svg" viewBox="0 0 180 180">

  <defs>
    <!-- Moon gradient -->
    <linearGradient id="moonGradient" x1="153" y1="153" x2="0" y2="0" gradientUnits="userSpaceOnUse">
      <stop offset="0%" stop-color="#fdd76c"/>
      <stop offset="100%" stop-color="#f9e095"/>
    </linearGradient>

    <!-- Cloud gradient -->
    <linearGradient id="cloudGradient" x1="140" y1="95" x2="20" y2="0" gradientUnits="userSpaceOnUse">
      <stop offset="0%" stop-color="#c8cfd8"/>
      <stop offset="100%" stop-color="#f0f3f7"/>
    </linearGradient>
  </defs>

  <!-- Moon -->
  <path
    d="M90.265,1.006S70.057,39.066,99.843,79.16c33.664,35.919,78.92,12.26,78.92,12.26s-6.793,44.557-50.953,58.616c-48.6,15.117-80.453-18.772-80.453-18.772S13.591,99.48,29.734,52.342C45.635,5.912,90.265,1.006,90.265,1.006Z"
    fill="url(#moonGradient)"
    fill-rule="evenodd"
  />

  <!-- Cloud -->
  <path
    d="M26.392,115.411S35.425,84.3,71.719,84.4C109.98,87.081,115,119.841,115,119.841s23.626,3.086,24.2,28.628c0.18,32.112-36.125,29.309-36.125,29.309l-65.435.682S2.174,178.108.831,146.424C1.828,116.594,26.392,115.411,26.392,115.411Z"
    fill="url(#cloudGradient)"
    fill-rule="evenodd"
  />

</svg>