<svg xmlns="http://www.w3.org/2000/svg" viewBox="0 0 180 180">

  <defs>
    <!-- Cloud gradient -->
    <linearGradient id="cloudGradient" x1="148" y1="120" x2="28" y2="0" gradientUnits="userSpaceOnUse">
      <stop offset="0%" stop-color="#a4a4a5"/>
      <stop offset="100%" stop-color="#ffffff"/>
    </linearGradient>
  </defs>

  <!-- Cloud -->
  <path
    d="M34.613,40.657S46.084,1.145,92.175,1.273c48.588,3.409,54.965,45.011,54.965,45.011s30,3.919,30.729,36.355c0.228,40.779-45.877,37.221-45.877,37.221l-83.1.865S3.858,120.278,2.153,80.042C3.419,42.159,34.613,40.657,34.613,40.657Z"
    fill="url(#cloudGradient)"
    fill-rule="evenodd"
  />

  <!-- Rain drops -->
  <path
    d="M139.308,125.549s1.394,15.4,1.557,26.467c0.244,10.413-3.114,13.493-3.114,13.493s-8.1,11.766-22.315,5.708c-14.16-6.034-10.379-21.277-10.379-21.277s1.22-5.715,7.265-10.9c4.6-3.3,11.017-5.434,16.088-7.785A122.143,122.143,0,0,0,139.308,125.549Z"
    fill="rgba(255,255,255,0.65)"
  />

  <path
    d="M96.308,125.549s1.394,15.4,1.557,26.467c0.244,10.413-3.114,13.493-3.114,13.493s-8.1,11.766-22.315,5.708c-14.16-6.034-10.379-21.277-10.379-21.277s1.221-5.715,7.265-10.9c4.6-3.3,11.017-5.434,16.088-7.785A122.236,122.236,0,0,0,96.308,125.549Z"
    fill="rgba(255,255,255,0.65)"
  />

  <!-- Lightning -->
  <path
    d="M28.874,80.941l-15.134,49.8H33.756l-7.811,43.448L77.2,113.161,58.165,111.7,76.716,81.429Z"
    fill="#fbc224"
  />

</svg>